<mxfile host="app.diagrams.net" modified="2023-03-28T06:54:56.191Z" agent="Mozilla/5.0 (Android 12; Mobile; rv:109.0) Gecko/111.0 Firefox/111.0" version="21.1.1" etag="X6hhMQNjtiFWl8cWhD40" type="github">
  <diagram name="第 1 页" id="Ze27znnSYWDD-4Ul6lNh">
    <mxGraphModel>
      <root>
        <mxCell id="0" />
        <mxCell id="1" parent="0" />
      </root>
    </mxGraphModel>
  </diagram>
</mxfile>
